<?xml version="1.0" standalone="no"?>
<!DOCTYPE svg PUBLIC "-//W3C//DTD SVG 20010904//EN"
 "http://www.w3.org/TR/2001/REC-SVG-20010904/DTD/svg10.dtd">
<svg version="1.0" xmlns="http://www.w3.org/2000/svg"
 width="512.000000pt" height="512.000000pt" viewBox="0 0 512.000000 512.000000"
 preserveAspectRatio="xMidYMid meet">

<g transform="translate(0.000000,512.000000) scale(0.100000,-0.100000)"
fill="#000000" stroke="none">
<path d="M3741 5109 c-111 -22 -259 -125 -307 -214 -10 -19 -23 -35 -28 -35
-5 0 -64 18 -131 40 -245 79 -476 114 -760 114 -298 0 -514 -34 -791 -125
-595 -196 -1099 -618 -1413 -1183 -107 -194 -205 -460 -251 -686 -74 -361 -65
-762 24 -1125 279 -1135 1343 -1935 2516 -1891 268 10 464 45 712 126 746 245
1342 846 1589 1599 86 265 122 489 122 776 0 413 -83 763 -268 1131 l-91 182
97 91 c283 265 399 553 330 823 -26 102 -60 165 -125 236 -176 189 -504 203
-692 30 l-44 -40 -46 41 c-112 98 -284 141 -443 110z m-1048 -1835 c293 -66
530 -308 594 -607 23 -108 13 -288 -21 -392 -87 -266 -302 -466 -574 -532 -91
-22 -265 -21 -357 2 -283 71 -496 279 -577 562 -32 111 -32 295 0 407 78 274
292 485 563 556 95 24 271 26 372 4z"/>
<path d="M2465 3035 c-14 -13 -25 -35 -25 -48 0 -37 36 -77 70 -77 149 0 304
-100 368 -238 24 -50 27 -69 27 -162 0 -97 -2 -110 -31 -170 -159 -331 -638
-290 -739 64 -40 139 10 309 117 398 103 86 111 96 104 130 -8 41 -21 55 -56
63 -39 9 -77 -13 -160 -92 -79 -74 -140 -180 -160 -280 -19 -87 -8 -224 23
-306 87 -226 307 -369 547 -354 404 25 637 450 447 812 -67 127 -219 239 -364
270 -101 22 -139 19 -168 -10z"/>
</g>
</svg>
